<svg width="961" height="996" viewBox="0 0 961 996" fill="none" xmlns="http://www.w3.org/2000/svg">
	<defs>
		<mask id="myMask">
			<rect width="100%" height="100%" fill="white" />
			<rect id="mask" x="203" y="174" width="553.91" height="620.508" fill="black" />
		</mask>
	</defs>
	<g clip-path="url(#clip0_6358_3292)">
		<g filter="url(#filter0_b_6358_3292)">
			<path fill-rule="evenodd" clip-rule="evenodd" d="M961 -9H0V987H961V-9ZM757.476" fill="#AEC0EE" fill-opacity="0.1" mask="url(#myMask)" />
		</g>
	</g>
	<g>
		<path d="M203 193.92V174H212.553H222.105" stroke="white" stroke-width="2" />
		<path d="M758.105 777V796.92H748.553H739" stroke="white" stroke-width="2" />
	</g>
	<!-- <g>
		<path opacity="0.6" d="M249.353 761.506H247.923V752.211H251.797C253.851 752.211 254.956 753.173 254.956 754.889C254.956 756.072 254.241 756.93 253.214 757.164V757.19C255.372 757.593 254.579 761.259 255.086 761.415V761.506H253.552C253.136 761.116 254.02 757.866 251.745 757.866H249.353V761.506ZM249.353 756.631H251.485C252.798 756.631 253.513 756.059 253.513 754.993C253.513 753.992 252.941 753.446 251.511 753.446H249.353V756.631ZM263.097 761.506H256.389V752.211H262.967V753.446H257.819V756.085H262.33V757.32H257.819V760.271H263.097V761.506ZM267.889 761.688C265.211 761.688 263.703 759.66 263.703 756.852C263.703 754.057 265.406 752.029 268.058 752.029C270.463 752.029 271.737 753.316 272.036 755.084H270.541C270.294 753.914 269.423 753.264 268.045 753.264C265.991 753.264 265.198 755.11 265.198 756.852C265.198 758.607 265.796 760.453 267.967 760.453C269.501 760.453 270.723 759.387 270.736 757.84H267.993V756.644H272.192V761.506H271.204L270.853 760.219H270.827C270.177 761.168 269.306 761.688 267.889 761.688ZM275.095 761.506H273.665V752.211H275.095V761.506ZM280.983 761.688C278.201 761.688 276.42 759.647 276.42 756.852C276.42 754.057 278.201 752.029 280.983 752.029C283.765 752.029 285.546 754.057 285.546 756.852C285.546 759.647 283.765 761.688 280.983 761.688ZM280.983 760.453C283.18 760.453 284.051 758.763 284.051 756.852C284.051 754.941 283.18 753.264 280.983 753.264C278.786 753.264 277.915 754.941 277.915 756.852C277.915 758.763 278.786 760.453 280.983 760.453ZM288.307 761.506H286.877V752.211H288.515L292.831 759.361H292.857V752.211H294.3V761.506H292.662L288.333 754.356H288.307V761.506ZM298.843 761.506H297.66L301.261 752.211H302.444L298.843 761.506Z" fill="white" />
		<path opacity="0.8" d="M249.715 779.557H248.065V768.832H255.505V770.257H249.715V773.482H254.395V774.907H249.715V779.557ZM256.225 779.557H254.485L258.475 768.832H260.26L264.28 779.557H262.48L261.595 776.977H257.11L256.225 779.557ZM259.345 770.362L257.605 775.582H261.13L259.375 770.362H259.345ZM269.407 779.767C266.362 779.767 264.397 777.427 264.397 774.202C264.397 770.962 266.377 768.622 269.422 768.622C272.107 768.622 273.772 770.332 274.027 772.477H272.302C272.107 771.427 271.447 770.047 269.392 770.047C267.022 770.047 266.122 772.057 266.122 774.187C266.122 776.332 267.022 778.342 269.392 778.342C271.462 778.342 272.197 776.962 272.302 775.657H274.027C273.787 778.042 272.107 779.767 269.407 779.767ZM283.178 779.557H275.438V768.832H283.028V770.257H277.088V773.302H282.293V774.727H277.088V778.132H283.178V779.557Z" fill="white" />
		<path opacity="0.6" d="M478.353 761.173H476.923V751.878H480.797C482.552 751.878 483.839 752.697 483.839 754.647C483.839 756.597 482.552 757.403 480.797 757.403H478.353V761.173ZM478.353 756.168H480.732C481.811 756.168 482.357 755.687 482.357 754.647C482.357 753.594 481.811 753.113 480.732 753.113H478.353V756.168ZM484.744 761.173H483.236L486.694 751.878H488.241L491.725 761.173H490.165L489.398 758.937H485.511L484.744 761.173ZM487.448 753.204L485.94 757.728H488.995L487.474 753.204H487.448ZM494.054 761.173H492.624V751.878H496.498C498.552 751.878 499.657 752.84 499.657 754.556C499.657 755.739 498.942 756.597 497.915 756.831V756.857C500.073 757.26 499.28 760.926 499.787 761.082V761.173H498.253C497.837 760.783 498.721 757.533 496.446 757.533H494.054V761.173ZM494.054 756.298H496.186C497.499 756.298 498.214 755.726 498.214 754.66C498.214 753.659 497.642 753.113 496.212 753.113H494.054V756.298ZM504.466 761.173H503.023V753.113H500.02V751.878H507.469V753.113H504.466V761.173ZM511.682 761.355C509.329 761.355 507.678 760.133 507.574 758.04H509.056C509.16 759.288 509.901 760.133 511.643 760.133C513.138 760.133 513.593 759.483 513.593 758.638C513.593 757.455 512.683 757.286 510.993 756.857C509.537 756.467 507.938 755.999 507.938 754.231C507.938 752.619 509.186 751.696 511.188 751.696C513.307 751.696 514.685 752.775 514.828 754.647H513.346C513.19 753.529 512.553 752.918 511.201 752.918C510.031 752.918 509.433 753.347 509.433 754.153C509.433 755.193 510.408 755.414 511.604 755.713C513.398 756.168 515.088 756.597 515.088 758.56C515.088 760.159 514.009 761.355 511.682 761.355ZM519.097 761.173H517.914L521.515 751.878H522.698L519.097 761.173Z" fill="white" />
		<path opacity="0.8" d="M483.785 780.094H476.42C476.42 778.144 477.605 776.794 479.585 775.564C481.34 774.499 482.225 774.064 482.225 772.684C482.225 771.829 481.88 770.914 480.47 770.914C478.85 770.914 478.34 771.964 478.34 773.389H476.69C476.69 771.184 477.89 769.519 480.515 769.519C482.39 769.519 483.905 770.644 483.905 772.624C483.905 774.634 482.27 775.669 480.785 776.584C479.765 777.184 478.805 777.754 478.505 778.669V778.699H483.785V780.094ZM491.205 780.094H489.585V777.724H484.65V776.224L489.585 769.729H491.205V776.329H492.66V777.724H491.205V780.094ZM489.585 771.814L486.15 776.329H489.585V771.814Z" fill="white" />
		<path opacity="0.6" d="M707.927 761.173H706.497V751.878H710.371C712.126 751.878 713.413 752.697 713.413 754.647C713.413 756.597 712.126 757.403 710.371 757.403H707.927V761.173ZM707.927 756.168H710.306C711.385 756.168 711.931 755.687 711.931 754.647C711.931 753.594 711.385 753.113 710.306 753.113H707.927V756.168ZM714.318 761.173H712.81L716.268 751.878H717.815L721.299 761.173H719.739L718.972 758.937H715.085L714.318 761.173ZM717.022 753.204L715.514 757.728H718.569L717.048 753.204H717.022ZM725.599 761.355C722.921 761.355 721.413 759.327 721.413 756.519C721.413 753.724 723.116 751.696 725.768 751.696C728.173 751.696 729.447 752.983 729.746 754.751H728.251C728.004 753.581 727.133 752.931 725.755 752.931C723.701 752.931 722.908 754.777 722.908 756.519C722.908 758.274 723.506 760.12 725.677 760.12C727.211 760.12 728.433 759.054 728.446 757.507H725.703V756.311H729.902V761.173H728.914L728.563 759.886H728.537C727.887 760.835 727.016 761.355 725.599 761.355ZM738.083 761.173H731.375V751.878H737.953V753.113H732.805V755.752H737.316V756.987H732.805V759.938H738.083V761.173ZM742.856 761.355C740.503 761.355 738.852 760.133 738.748 758.04H740.23C740.334 759.288 741.075 760.133 742.817 760.133C744.312 760.133 744.767 759.483 744.767 758.638C744.767 757.455 743.857 757.286 742.167 756.857C740.711 756.467 739.112 755.999 739.112 754.231C739.112 752.619 740.36 751.696 742.362 751.696C744.481 751.696 745.859 752.775 746.002 754.647H744.52C744.364 753.529 743.727 752.918 742.375 752.918C741.205 752.918 740.607 753.347 740.607 754.153C740.607 755.193 741.582 755.414 742.778 755.713C744.572 756.168 746.262 756.597 746.262 758.56C746.262 760.159 745.183 761.355 742.856 761.355ZM750.271 761.173H749.088L752.689 751.878H753.872L750.271 761.173Z" fill="white" />
		<path opacity="0.8" d="M724.313 780.094V772.399C723.863 772.819 723.068 772.894 722.138 772.894V771.574C723.968 771.529 724.508 770.974 724.643 769.729H725.933V780.094H724.313ZM731.525 780.304C729.275 780.304 727.55 779.269 727.55 777.169C727.55 775.744 728.495 775.024 729.485 774.589V774.559C728.75 774.169 728.06 773.509 728.06 772.339C728.06 770.554 729.515 769.519 731.525 769.519C733.55 769.519 735.005 770.554 735.005 772.339C735.005 773.509 734.3 774.169 733.58 774.559V774.589C734.555 775.024 735.515 775.744 735.515 777.169C735.515 779.269 733.79 780.304 731.525 780.304ZM731.525 773.944C732.695 773.944 733.385 773.449 733.385 772.399C733.385 771.364 732.695 770.839 731.525 770.839C730.37 770.839 729.68 771.364 729.68 772.399C729.68 773.449 730.37 773.944 731.525 773.944ZM731.525 778.954C732.965 778.954 733.82 778.264 733.82 777.079C733.82 775.924 732.965 775.234 731.525 775.234C730.085 775.234 729.23 775.924 729.23 777.079C729.23 778.264 730.085 778.954 731.525 778.954ZM740.786 780.304C737.891 780.304 736.661 777.889 736.661 774.919C736.661 771.949 737.891 769.519 740.786 769.519C743.681 769.519 744.896 771.949 744.896 774.919C744.896 777.889 743.681 780.304 740.786 780.304ZM740.786 778.909C742.646 778.909 743.201 777.049 743.201 774.919C743.201 772.789 742.646 770.914 740.786 770.914C738.911 770.914 738.356 772.789 738.356 774.919C738.356 777.049 738.911 778.909 740.786 778.909Z" fill="white" />
		<path opacity="0.3" d="M247.239 739H753.968" stroke="white" stroke-width="1.5" />
		<path d="M250.576 231H248.824V213.84H260.296V215.376H250.576V221.448H258.592V222.984H250.576V231ZM263.768 231.312C261.32 231.312 259.76 229.944 259.76 227.904C259.76 225.264 261.632 224.424 264.8 223.872C266.816 223.512 268.112 223.368 268.112 221.904C268.112 220.656 267.296 219.816 265.328 219.816C262.952 219.816 262.112 220.656 261.992 222.456H260.336C260.456 220.296 261.824 218.448 265.376 218.448C267.632 218.448 269.624 219.408 269.624 222.336V228.456C269.624 229.44 269.768 229.896 270.32 229.896C270.416 229.896 270.512 229.896 270.656 229.872V231C270.392 231.048 270.128 231.096 269.84 231.096C268.808 231.096 268.208 230.688 268.112 229.152H268.064C267.224 230.544 265.76 231.312 263.768 231.312ZM263.96 229.944C266.456 229.944 268.112 228.624 268.112 226.416V224.136C267.752 224.64 266.456 224.928 264.992 225.168C262.616 225.6 261.392 226.2 261.392 227.76C261.392 229.176 262.184 229.944 263.96 229.944ZM277.443 231.312C273.939 231.312 271.587 228.72 271.587 224.88C271.587 221.064 273.939 218.472 277.443 218.472C280.419 218.472 282.435 220.464 282.699 223.056H281.067C280.971 221.688 279.987 219.84 277.443 219.84C274.443 219.84 273.219 222.384 273.219 224.88C273.219 227.4 274.443 229.968 277.443 229.968C280.011 229.968 280.971 228.12 281.067 226.632H282.699C282.531 229.272 280.419 231.312 277.443 231.312ZM286.214 216.312H284.198V214.296H286.214V216.312ZM285.998 231H284.438V218.76H285.998V231ZM291.868 231.312C289.42 231.312 287.86 229.944 287.86 227.904C287.86 225.264 289.732 224.424 292.9 223.872C294.916 223.512 296.212 223.368 296.212 221.904C296.212 220.656 295.396 219.816 293.428 219.816C291.052 219.816 290.212 220.656 290.092 222.456H288.436C288.556 220.296 289.924 218.448 293.476 218.448C295.732 218.448 297.724 219.408 297.724 222.336V228.456C297.724 229.44 297.868 229.896 298.42 229.896C298.516 229.896 298.612 229.896 298.756 229.872V231C298.492 231.048 298.228 231.096 297.94 231.096C296.908 231.096 296.308 230.688 296.212 229.152H296.164C295.324 230.544 293.86 231.312 291.868 231.312ZM292.06 229.944C294.556 229.944 296.212 228.624 296.212 226.416V224.136C295.852 224.64 294.556 224.928 293.092 225.168C290.716 225.6 289.492 226.2 289.492 227.76C289.492 229.176 290.284 229.944 292.06 229.944ZM302.036 231H300.476V213.84H302.036V231ZM249.016 253H247.216L253.624 235.84H255.592L262.048 253H260.176L258.448 248.248H250.744L249.016 253ZM254.584 237.496L251.32 246.688H257.896L254.632 237.496H254.584ZM267.545 253.312C264.113 253.312 262.241 251.44 262.169 248.992H263.801C263.897 250.672 265.001 251.944 267.569 251.944C269.897 251.944 270.689 250.864 270.689 249.664C270.689 247.864 268.865 247.672 267.161 247.264C264.905 246.688 262.625 246.136 262.625 243.76C262.625 241.768 264.209 240.472 266.969 240.472C270.161 240.472 271.649 242.176 271.865 244.192H270.233C270.017 243.112 269.369 241.84 266.993 241.84C265.241 241.84 264.257 242.512 264.257 243.664C264.257 245.2 265.913 245.416 267.761 245.872C270.065 246.424 272.345 247.072 272.345 249.616C272.345 251.848 270.569 253.312 267.545 253.312ZM278.505 253.312C275.073 253.312 273.201 251.44 273.129 248.992H274.761C274.857 250.672 275.961 251.944 278.529 251.944C280.857 251.944 281.649 250.864 281.649 249.664C281.649 247.864 279.825 247.672 278.121 247.264C275.865 246.688 273.585 246.136 273.585 243.76C273.585 241.768 275.169 240.472 277.929 240.472C281.121 240.472 282.609 242.176 282.825 244.192H281.193C280.977 243.112 280.329 241.84 277.953 241.84C276.201 241.84 275.217 242.512 275.217 243.664C275.217 245.2 276.873 245.416 278.721 245.872C281.025 246.424 283.305 247.072 283.305 249.616C283.305 251.848 281.529 253.312 278.505 253.312ZM295.658 246.328C295.658 246.664 295.658 247 295.634 247.192H285.938C285.962 249.664 287.282 251.992 290.162 251.992C292.682 251.992 293.666 250.264 293.906 249.256H295.49C294.89 251.488 293.21 253.336 290.138 253.336C286.394 253.336 284.306 250.6 284.306 246.88C284.306 242.968 286.61 240.448 290.138 240.448C293.666 240.448 295.658 242.92 295.658 246.328ZM285.938 245.824H294.002C294.002 243.64 292.586 241.792 290.066 241.792C287.69 241.792 286.058 243.544 285.938 245.824ZM301.996 253.312C298.564 253.312 296.692 251.44 296.62 248.992H298.252C298.348 250.672 299.452 251.944 302.02 251.944C304.348 251.944 305.14 250.864 305.14 249.664C305.14 247.864 303.316 247.672 301.612 247.264C299.356 246.688 297.076 246.136 297.076 243.76C297.076 241.768 298.66 240.472 301.42 240.472C304.612 240.472 306.1 242.176 306.316 244.192H304.684C304.468 243.112 303.82 241.84 301.444 241.84C299.692 241.84 298.708 242.512 298.708 243.664C298.708 245.2 300.364 245.416 302.212 245.872C304.516 246.424 306.796 247.072 306.796 249.616C306.796 251.848 305.02 253.312 301.996 253.312ZM312.957 253.312C309.525 253.312 307.653 251.44 307.581 248.992H309.213C309.309 250.672 310.413 251.944 312.981 251.944C315.309 251.944 316.101 250.864 316.101 249.664C316.101 247.864 314.277 247.672 312.573 247.264C310.317 246.688 308.037 246.136 308.037 243.76C308.037 241.768 309.621 240.472 312.381 240.472C315.573 240.472 317.061 242.176 317.277 244.192H315.645C315.429 243.112 314.781 241.84 312.405 241.84C310.653 241.84 309.669 242.512 309.669 243.664C309.669 245.2 311.325 245.416 313.173 245.872C315.477 246.424 317.757 247.072 317.757 249.616C317.757 251.848 315.981 253.312 312.957 253.312ZM332.125 240.472C334.453 240.472 335.725 241.864 335.725 244.408V253H334.165V244.744C334.165 243.208 333.805 241.84 331.789 241.84C329.629 241.84 328.357 243.496 328.357 245.272V253H326.797V244.744C326.797 243.208 326.437 241.84 324.397 241.84C322.261 241.84 320.965 243.496 320.965 245.272V253H319.405V240.76H320.965V242.488H321.013C321.661 241.504 322.813 240.472 324.733 240.472C326.461 240.472 327.565 241.264 328.021 242.728H328.069C328.861 241.504 330.181 240.472 332.125 240.472ZM348.851 246.328C348.851 246.664 348.851 247 348.827 247.192H339.131C339.155 249.664 340.475 251.992 343.355 251.992C345.875 251.992 346.859 250.264 347.099 249.256H348.683C348.083 251.488 346.403 253.336 343.331 253.336C339.587 253.336 337.499 250.6 337.499 246.88C337.499 242.968 339.803 240.448 343.331 240.448C346.859 240.448 348.851 242.92 348.851 246.328ZM339.131 245.824H347.195C347.195 243.64 345.779 241.792 343.259 241.792C340.883 241.792 339.251 243.544 339.131 245.824ZM356.485 240.472C358.669 240.472 360.493 241.696 360.493 244.408V253H358.933V244.744C358.933 243.184 358.213 241.84 356.101 241.84C353.773 241.84 352.237 243.472 352.237 245.272V253H350.677V240.76H352.237V242.512H352.285C352.981 241.504 354.301 240.472 356.485 240.472ZM367.513 240.76V242.128H365.041V249.856C365.041 251.368 365.377 251.728 366.577 251.728C366.961 251.728 367.153 251.704 367.513 251.68V253C367.033 253.072 366.745 253.096 366.361 253.096C364.585 253.096 363.481 252.496 363.481 249.832V242.128H361.681V240.76H363.481V236.68H365.041V240.76H367.513ZM250.576 275H248.824V257.84H255.544C259.192 257.84 261.184 259.544 261.184 262.688C261.184 264.968 259.864 266.528 257.992 267.008V267.056C261.928 267.848 260.56 274.568 261.496 274.856V275H259.624C258.832 274.28 260.392 267.872 255.808 267.872H250.576V275ZM250.576 266.336H255.112C257.848 266.336 259.432 265.112 259.432 262.712C259.432 260.528 258.184 259.376 255.232 259.376H250.576V266.336ZM273.948 268.328C273.948 268.664 273.948 269 273.924 269.192H264.228C264.252 271.664 265.572 273.992 268.452 273.992C270.972 273.992 271.956 272.264 272.196 271.256H273.78C273.18 273.488 271.5 275.336 268.428 275.336C264.684 275.336 262.596 272.6 262.596 268.88C262.596 264.968 264.9 262.448 268.428 262.448C271.956 262.448 273.948 264.92 273.948 268.328ZM264.228 267.824H272.292C272.292 265.64 270.876 263.792 268.356 263.792C265.98 263.792 264.348 265.544 264.228 267.824ZM281.511 262.448C284.511 262.448 286.911 264.848 286.911 268.88C286.911 272.888 284.511 275.288 281.511 275.288C279.375 275.288 278.103 274.232 277.383 272.936H277.335V279.248H275.775V262.76H277.335V264.728H277.383C278.103 263.552 279.375 262.448 281.511 262.448ZM281.343 273.92C283.887 273.92 285.279 271.616 285.279 268.88C285.279 266.12 283.887 263.816 281.343 263.816C278.991 263.816 277.335 265.784 277.335 268.88C277.335 271.952 278.991 273.92 281.343 273.92ZM293.982 275.336C290.31 275.336 288.102 272.696 288.102 268.904C288.102 265.088 290.31 262.448 293.982 262.448C297.654 262.448 299.862 265.088 299.862 268.904C299.862 272.696 297.654 275.336 293.982 275.336ZM293.982 273.968C296.838 273.968 298.23 271.712 298.23 268.904C298.23 266.072 296.838 263.816 293.982 263.816C291.126 263.816 289.734 266.072 289.734 268.904C289.734 271.712 291.126 273.968 293.982 273.968ZM306.791 262.472C307.223 262.472 307.559 262.496 307.847 262.544V264.08C307.607 264.032 307.343 264.008 307.103 264.008C304.895 264.008 303.263 265.784 303.263 268.16V275H301.703V262.76H303.263V265.256H303.311C303.935 263.648 305.063 262.472 306.791 262.472ZM313.852 262.76V264.128H311.38V271.856C311.38 273.368 311.716 273.728 312.916 273.728C313.3 273.728 313.492 273.704 313.852 273.68V275C313.372 275.072 313.084 275.096 312.7 275.096C310.924 275.096 309.82 274.496 309.82 271.832V264.128H308.02V262.76H309.82V258.68H311.38V262.76H313.852Z" fill="white" />
		<g opacity="0.4">
			<path d="M225.176 -5.35059L225.175 996.247" stroke="white" stroke-width="1.07008" stroke-dasharray="4.28 2.14" />
			<path d="M24 184.38H923.94" stroke="white" stroke-width="1.07008" stroke-dasharray="4.28 2.14" />
		</g>
		<g opacity="0.4">
			<path d="M786.764 996.247L786.764 -5.35048" stroke="white" stroke-width="1.07008" stroke-dasharray="4.28 2.14" />
			<path d="M987.94 806.518H88" stroke="white" stroke-width="1.07008" stroke-dasharray="4.28 2.14" />
		</g>
	</g> -->
</svg>
