<svg width="93" height="101" viewBox="0 0 93 101" fill="none" xmlns="http://www.w3.org/2000/svg">
	<g clip-path="url(#clip0_6028_3275)">
		<rect x="24.0942" y="0.333008" width="68.6747" height="100" fill="white" />
		<rect x="23.4918" y="-0.269402" width="69.8795" height="101.205" stroke="#7D828E" stroke-opacity="0.15" stroke-width="1.20482" />
		<rect width="24.0964" height="100" transform="matrix(-1 0 0 1 24.0935 0.333008)" fill="white" />
		<rect x="0.60241" y="-0.60241" width="25.3012" height="101.205" transform="matrix(-1 0 0 1 25.2983 0.333008)" stroke="#7D828E" stroke-opacity="0.15" stroke-width="1.20482" />
		<rect x="8.4314" y="7.7627" width="8.43373" height="81.9277" fill="#7D828E" fill-opacity="0.07" />
		<rect x="8.4314" y="77.6426" width="8.43373" height="12.0482" fill="#7D828E" fill-opacity="0.15" />
		<path opacity="0.2" d="M60.3455 8.96031C56.625 8.96031 55.0442 5.85669 55.0442 2.03983C55.0442 -1.77704 56.625 -4.89993 60.3455 -4.89993C64.0659 -4.89993 65.6274 -1.77704 65.6274 2.03983C65.6274 5.85669 64.0659 8.96031 60.3455 8.96031ZM60.3455 7.16754C62.7358 7.16754 63.4491 4.77718 63.4491 2.03983C63.4491 -0.697523 62.7358 -3.10716 60.3455 -3.10716C57.9358 -3.10716 57.2226 -0.697523 57.2226 2.03983C57.2226 4.77718 57.9358 7.16754 60.3455 7.16754Z" fill="#233137" />
		<path opacity="0.6" d="M60.2611 33.6904V23.8013C59.6828 24.341 58.6611 24.4374 57.4659 24.4374V22.741C59.8177 22.6832 60.5117 21.9699 60.6852 20.3699H62.343V33.6904H60.2611Z" fill="#233137" />
		<path d="M65.2202 58.6904H55.7551C55.7551 56.1844 57.278 54.4495 59.8226 52.8687C62.078 51.5001 63.2153 50.941 63.2153 49.1675C63.2153 48.0687 62.772 46.8928 60.9599 46.8928C58.878 46.8928 58.2226 48.2422 58.2226 50.0736H56.1021C56.1021 47.2398 57.6442 45.1001 61.0177 45.1001C63.4274 45.1001 65.3744 46.5458 65.3744 49.0904C65.3744 51.6736 63.2732 53.0037 61.3647 54.1796C60.0539 54.9507 58.8202 55.6832 58.4346 56.8591V56.8977H65.2202V58.6904Z" fill="#233137" />
		<path opacity="0.6" d="M60.6912 83.9603C57.2599 83.9603 55.3322 82.1868 55.3322 79.141H57.4527C57.4527 80.9724 58.2238 82.1675 60.5563 82.1675C62.6575 82.1675 63.3708 81.3193 63.3708 79.8928C63.3708 78.0615 62.0599 77.6181 60.7105 77.6181H59.4575V75.9025H60.6334C61.9635 75.9025 62.9081 75.3049 62.9081 73.8591C62.9081 72.8181 62.272 71.8928 60.6334 71.8928C58.378 71.8928 57.8189 73.088 57.8189 74.3796H55.6985C55.6985 71.9121 57.3756 70.1001 60.6527 70.1001C63.0238 70.1001 65.0671 71.4109 65.0671 73.7627C65.0671 75.1892 64.3346 76.076 63.0623 76.6157V76.6543C64.8165 77.2133 65.5298 78.3699 65.5298 79.9314C65.5298 82.5145 63.6214 83.9603 60.6912 83.9603Z" fill="#233137" />
		<path opacity="0.2" d="M63.6406 108.69H61.5587V105.645H55.2165V103.717L61.5587 95.3699H63.6406V103.852H65.5105V105.645H63.6406V108.69ZM61.5587 98.0495L57.1442 103.852H61.5587V98.0495Z" fill="#233137" />
		<g clip-path="url(#clip1_6028_3275)">
			<path opacity="0.1" d="M24.4114 57.1532C20.6909 57.1532 19.1102 54.0496 19.1102 50.2327C19.1102 46.4158 20.6909 43.2929 24.4114 43.2929C28.1319 43.2929 29.6933 46.4158 29.6933 50.2327C29.6933 54.0496 28.1319 57.1532 24.4114 57.1532ZM24.4114 55.3604C26.8017 55.3604 27.515 52.97 27.515 50.2327C27.515 47.4953 26.8017 45.0857 24.4114 45.0857C22.0017 45.0857 21.2885 47.4953 21.2885 50.2327C21.2885 52.97 22.0017 55.3604 24.4114 55.3604Z" fill="#233137" />
			<path opacity="0.4" d="M42.7609 56.8833V46.9941C42.1826 47.5339 41.1609 47.6303 39.9657 47.6303V45.9339C42.3175 45.8761 43.0115 45.1628 43.185 43.5628H44.8428V56.8833H42.7609Z" fill="#233137" />
			<path d="M65.1535 56.8833H55.6884C55.6884 54.3773 57.2113 52.6423 59.7559 51.0616C62.0113 49.6929 63.1487 49.1339 63.1487 47.3604C63.1487 46.2616 62.7053 45.0857 60.8933 45.0857C58.8113 45.0857 58.1559 46.4351 58.1559 48.2664H56.0354C56.0354 45.4327 57.5776 43.2929 60.9511 43.2929C63.3607 43.2929 65.3077 44.7387 65.3077 47.2833C65.3077 49.8664 63.2065 51.1966 61.2981 52.3725C59.9872 53.1435 58.7535 53.8761 58.368 55.052V55.0905H65.1535V56.8833Z" fill="#233137" />
			<path opacity="0.4" d="M80.5584 57.1532C77.1271 57.1532 75.1994 55.3797 75.1994 52.3339H77.3199C77.3199 54.1652 78.091 55.3604 80.4235 55.3604C82.5247 55.3604 83.2379 54.5122 83.2379 53.0857C83.2379 51.2544 81.9271 50.811 80.5777 50.811H79.3247V49.0953H80.5006C81.8307 49.0953 82.7753 48.4978 82.7753 47.052C82.7753 46.011 82.1391 45.0857 80.5006 45.0857C78.2452 45.0857 77.6861 46.2809 77.6861 47.5725H75.5657C75.5657 45.105 77.2428 43.2929 80.5199 43.2929C82.891 43.2929 84.9343 44.6038 84.9343 46.9556C84.9343 48.3821 84.2018 49.2688 82.9295 49.8086V49.8472C84.6837 50.4062 85.397 51.5628 85.397 53.1243C85.397 55.7074 83.4885 57.1532 80.5584 57.1532Z" fill="#233137" />
		</g>
	</g>
	<rect x="0.60241" y="0.935417" width="91.5663" height="98.7952" stroke="#7D828E" stroke-opacity="0.15" stroke-width="1.20482" />
	<defs>
		<clipPath id="clip0_6028_3275">
			<rect y="0.333008" width="92.7711" height="100" fill="white" />
		</clipPath>
		<clipPath id="clip1_6028_3275">
			<rect width="74.6988" height="25" fill="white" transform="translate(25.2993 37.8833)" />
		</clipPath>
	</defs>
</svg>
