<svg width="970" height="800" viewBox="0 0 970 800" fill="none" xmlns="http://www.w3.org/2000/svg">
	<g opacity="0.6">
		<circle opacity="0.3" cx="478.619" cy="465.619" r="295.869" stroke="white" stroke-width="1.5" />
		<circle opacity="0.3" cx="454.5" cy="337.5" r="166.75" stroke="white" stroke-width="1.5" />
		<rect opacity="0.6" x="118.75" y="118.75" width="562.5" height="562.5" stroke="white" stroke-width="1.5" />
		<path d="M250.533 517V506.99H254.341C257.113 506.99 258.793 508.782 258.793 512.002C258.793 515.222 257.141 517 254.369 517H250.533ZM252.073 515.67H254.271C256.595 515.67 257.197 513.934 257.197 512.002C257.197 510.07 256.595 508.32 254.271 508.32H252.073V515.67ZM260.253 517V506.99H267.337V508.32H261.793V511.162H266.651V512.492H261.793V515.67H267.477V517H260.253ZM268.85 517V506.99H273.022C275.234 506.99 276.424 508.026 276.424 509.874C276.424 511.148 275.654 512.072 274.548 512.324V512.352C276.872 512.786 276.018 516.734 276.564 516.902V517H274.912C274.464 516.58 275.416 513.08 272.966 513.08H270.39V517H268.85ZM270.39 511.75H272.686C274.1 511.75 274.87 511.134 274.87 509.986C274.87 508.908 274.254 508.32 272.714 508.32H270.39V511.75ZM277.968 517V506.99H279.998L282.882 514.858H282.91L285.808 506.99H287.838V517H286.326V509.23H286.298L283.54 517H282.266L279.508 509.23H279.48V517H277.968ZM288.813 517L292.537 506.99H294.204L297.955 517H296.275L295.449 514.592H291.263L290.437 517H288.813ZM291.725 513.29H295.016L293.377 508.418H293.349L291.725 513.29ZM300.075 517V508.32H296.841V506.99H304.863V508.32H301.629V517H300.075ZM309.786 517.196C306.79 517.196 304.872 514.998 304.872 511.988C304.872 508.978 306.79 506.794 309.786 506.794C312.782 506.794 314.7 508.978 314.7 511.988C314.7 514.998 312.782 517.196 309.786 517.196ZM306.482 511.988C306.482 514.046 307.42 515.866 309.786 515.866C312.152 515.866 313.09 514.046 313.09 511.988C313.09 509.93 312.152 508.124 309.786 508.124C307.42 508.124 306.482 509.93 306.482 511.988ZM316.133 517V506.99H317.673V515.67H322.741V517H316.133ZM327.61 517.196C324.614 517.196 322.696 514.998 322.696 511.988C322.696 508.978 324.614 506.794 327.61 506.794C330.606 506.794 332.524 508.978 332.524 511.988C332.524 514.998 330.606 517.196 327.61 517.196ZM324.306 511.988C324.306 514.046 325.244 515.866 327.61 515.866C329.976 515.866 330.914 514.046 330.914 511.988C330.914 509.93 329.976 508.124 327.61 508.124C325.244 508.124 324.306 509.93 324.306 511.988ZM337.99 517.196C335.106 517.196 333.482 515.012 333.482 511.988C333.482 508.978 335.316 506.794 338.172 506.794C340.762 506.794 342.134 508.18 342.456 510.084H340.846C340.58 508.824 339.642 508.124 338.158 508.124C335.946 508.124 335.092 510.112 335.092 511.988C335.092 513.878 335.736 515.866 338.074 515.866C339.726 515.866 341.042 514.718 341.056 513.052H338.102V511.764H342.624V517H341.56L341.182 515.614H341.154C340.454 516.636 339.516 517.196 337.99 517.196ZM346.228 517V512.996L342.644 506.99H344.31L346.998 511.778H347.026L349.714 506.99H351.366L347.782 512.996V517H346.228Z" fill="white" />
		<path d="M165.806 230V219.99H169.614C172.386 219.99 174.066 221.782 174.066 225.002C174.066 228.222 172.414 230 169.642 230H165.806ZM167.346 228.67H169.544C171.868 228.67 172.47 226.934 172.47 225.002C172.47 223.07 171.868 221.32 169.544 221.32H167.346V228.67ZM175.525 230V219.99H182.609V221.32H177.065V224.162H181.923V225.492H177.065V228.67H182.749V230H175.525ZM184.123 230V219.99H185.887L190.535 227.69H190.563V219.99H192.117V230H190.353L185.691 222.3H185.663V230H184.123ZM196.484 230V221.32H193.25V219.99H201.272V221.32H198.038V230H196.484ZM202.399 230V219.99H203.939V230H202.399ZM209.623 230.196C207.089 230.196 205.311 228.88 205.199 226.626H206.795C206.907 227.97 207.705 228.88 209.581 228.88C211.191 228.88 211.681 228.18 211.681 227.27C211.681 225.996 210.701 225.814 208.881 225.352C207.313 224.932 205.591 224.428 205.591 222.524C205.591 220.788 206.935 219.794 209.091 219.794C211.373 219.794 212.857 220.956 213.011 222.972H211.415C211.247 221.768 210.561 221.11 209.105 221.11C207.845 221.11 207.201 221.572 207.201 222.44C207.201 223.56 208.251 223.798 209.539 224.12C211.471 224.61 213.291 225.072 213.291 227.186C213.291 228.908 212.129 230.196 209.623 230.196ZM216.645 230V221.32H213.411V219.99H221.433V221.32H218.199V230H216.645ZM222.56 230V219.99H226.732C228.944 219.99 230.134 221.026 230.134 222.874C230.134 224.148 229.364 225.072 228.258 225.324V225.352C230.582 225.786 229.728 229.734 230.274 229.902V230H228.622C228.174 229.58 229.126 226.08 226.676 226.08H224.1V230H222.56ZM224.1 224.75H226.396C227.81 224.75 228.58 224.134 228.58 222.986C228.58 221.908 227.964 221.32 226.424 221.32H224.1V224.75ZM233.956 230V225.996L230.372 219.99H232.038L234.726 224.778H234.754L237.442 219.99H239.094L235.51 225.996V230H233.956Z" fill="white" />
		<circle opacity="0.6" cx="400" cy="400" r="399.25" stroke="white" stroke-width="1.5" />
		<circle opacity="0.3" cx="296.619" cy="296.619" r="295.869" transform="matrix(-1 0 0 1 622.238 32)" stroke="white" stroke-width="1.5" />
		<path d="M404.591 343.196C401.749 343.196 399.915 341.012 399.915 338.002C399.915 334.978 401.763 332.794 404.605 332.794C407.111 332.794 408.665 334.39 408.903 336.392H407.293C407.111 335.412 406.495 334.124 404.577 334.124C402.365 334.124 401.525 336 401.525 337.988C401.525 339.99 402.365 341.866 404.577 341.866C406.509 341.866 407.195 340.578 407.293 339.36H408.903C408.679 341.586 407.111 343.196 404.591 343.196ZM410.22 343V332.99H417.304V334.32H411.76V337.162H416.618V338.492H411.76V341.67H417.444V343H410.22ZM418.818 343V332.99H422.99C424.88 332.99 426.266 333.872 426.266 335.972C426.266 338.072 424.88 338.94 422.99 338.94H420.358V343H418.818ZM420.358 337.61H422.92C424.082 337.61 424.67 337.092 424.67 335.972C424.67 334.838 424.082 334.32 422.92 334.32H420.358V337.61ZM427.484 343V332.99H429.024V337.176H433.938V332.99H435.492V343H433.938V338.506H429.024V343H427.484ZM436.457 343L440.181 332.99H441.847L445.599 343H443.919L443.093 340.592H438.907L438.081 343H436.457ZM439.369 339.29H442.659L441.021 334.418H440.993L439.369 339.29ZM446.567 343V332.99H448.107V341.67H453.175V343H446.567ZM458.044 343.196C455.048 343.196 453.13 340.998 453.13 337.988C453.13 334.978 455.048 332.794 458.044 332.794C461.04 332.794 462.958 334.978 462.958 337.988C462.958 340.998 461.04 343.196 458.044 343.196ZM454.74 337.988C454.74 340.046 455.678 341.866 458.044 341.866C460.41 341.866 461.348 340.046 461.348 337.988C461.348 335.93 460.41 334.124 458.044 334.124C455.678 334.124 454.74 335.93 454.74 337.988ZM464.392 343V332.99H466.422L469.306 340.858H469.334L472.232 332.99H474.262V343H472.75V335.23H472.722L469.964 343H468.69L465.932 335.23H465.904V343H464.392ZM476.175 343V332.99H483.259V334.32H477.715V337.162H482.573V338.492H477.715V341.67H483.399V343H476.175ZM487.046 343V334.32H483.812V332.99H491.834V334.32H488.6V343H487.046ZM492.961 343V332.99H497.133C499.345 332.99 500.535 334.026 500.535 335.874C500.535 337.148 499.765 338.072 498.659 338.324V338.352C500.983 338.786 500.129 342.734 500.675 342.902V343H499.023C498.575 342.58 499.527 339.08 497.077 339.08H494.501V343H492.961ZM494.501 337.75H496.797C498.211 337.75 498.981 337.134 498.981 335.986C498.981 334.908 498.365 334.32 496.825 334.32H494.501V337.75ZM504.357 343V338.996L500.773 332.99H502.439L505.127 337.778H505.155L507.843 332.99H509.495L505.911 338.996V343H504.357Z" fill="white" />
		<path d="M508.346 633V622.99H510.376L513.26 630.858H513.288L516.186 622.99H518.216V633H516.704V625.23H516.676L513.918 633H512.644L509.886 625.23H509.858V633H508.346ZM519.191 633L522.915 622.99H524.581L528.333 633H526.653L525.827 630.592H521.641L520.815 633H519.191ZM522.103 629.29H525.393L523.755 624.418H523.727L522.103 629.29ZM528.251 633L531.639 627.89L528.489 622.99H530.197L532.521 626.77H532.535L534.873 622.99H536.567L533.417 627.862L536.735 633H534.943L532.493 629.01H532.479L530.057 633H528.251ZM537.64 633V622.99H539.18V633H537.64ZM541.097 633V622.99H542.637V631.67H547.705V633H541.097ZM548.834 633V622.99H550.374V631.67H555.442V633H548.834ZM560.311 633.196C557.315 633.196 555.397 630.998 555.397 627.988C555.397 624.978 557.315 622.794 560.311 622.794C563.307 622.794 565.225 624.978 565.225 627.988C565.225 630.998 563.307 633.196 560.311 633.196ZM557.007 627.988C557.007 630.046 557.945 631.866 560.311 631.866C562.677 631.866 563.615 630.046 563.615 627.988C563.615 625.93 562.677 624.124 560.311 624.124C557.945 624.124 557.007 625.93 557.007 627.988ZM566.658 633V622.99H573.602V624.32H568.198V627.33H572.566V628.66H568.198V633H566.658ZM572.65 633L576.374 622.99H578.04L581.792 633H580.112L579.286 630.592H575.1L574.274 633H572.65ZM575.562 629.29H578.852L577.214 624.418H577.186L575.562 629.29ZM586.577 633.196C583.735 633.196 581.901 631.012 581.901 628.002C581.901 624.978 583.749 622.794 586.591 622.794C589.097 622.794 590.651 624.39 590.889 626.392H589.279C589.097 625.412 588.481 624.124 586.563 624.124C584.351 624.124 583.511 626 583.511 627.988C583.511 629.99 584.351 631.866 586.563 631.866C588.495 631.866 589.181 630.578 589.279 629.36H590.889C590.665 631.586 589.097 633.196 586.577 633.196ZM592.206 633V622.99H593.746V633H592.206ZM594.726 633L598.45 622.99H600.116L603.868 633H602.188L601.362 630.592H597.176L596.35 633H594.726ZM597.638 629.29H600.928L599.29 624.418H599.262L597.638 629.29ZM604.836 633V622.99H606.376V631.67H611.444V633H604.836Z" fill="white" />
		<circle opacity="0.6" cx="400" cy="400" r="399.25" transform="matrix(-1 0 0 1 800 0)" stroke="white" stroke-width="1.5" />
		<circle cx="594" cy="50" r="15" fill="white" />
		<path d="M630.096 57.286C625.828 57.286 622.88 53.92 622.88 49.146C622.88 44.394 625.806 40.984 630.118 40.984C633.792 40.984 636.19 43.338 636.586 46.286H634.914C634.606 44.526 633.308 42.392 630.096 42.392C626.29 42.392 624.552 45.626 624.552 49.146C624.552 52.666 626.312 55.878 630.096 55.878C633.418 55.878 634.804 53.59 634.98 51.412H636.652C636.278 54.844 633.836 57.286 630.096 57.286ZM638.33 57V41.27H639.76V57H638.33ZM642.06 57V45.78H643.49V57H642.06ZM641.84 43.536V41.688H643.688V43.536H641.84ZM653.359 49.432C653.359 48.002 652.699 46.77 650.763 46.77C648.629 46.77 647.221 48.266 647.221 49.916V57H645.791V45.78H647.221V47.386H647.265C647.903 46.462 649.113 45.516 651.115 45.516C653.117 45.516 654.789 46.638 654.789 49.124V57H653.359V49.432ZM657.02 57V45.78H658.45V57H657.02ZM656.8 43.536V41.688H658.648V43.536H656.8ZM665.502 57.286C662.29 57.286 660.134 54.91 660.134 51.39C660.134 47.892 662.29 45.516 665.502 45.516C668.23 45.516 670.078 47.342 670.32 49.718H668.824C668.736 48.464 667.834 46.77 665.502 46.77C662.752 46.77 661.63 49.102 661.63 51.39C661.63 53.7 662.752 56.054 665.502 56.054C667.856 56.054 668.736 54.36 668.824 52.996H670.32C670.166 55.416 668.23 57.286 665.502 57.286ZM674.994 57.286C672.75 57.286 671.32 56.032 671.32 54.162C671.32 51.742 673.036 50.972 675.94 50.466C677.788 50.136 678.976 50.004 678.976 48.662C678.976 47.518 678.228 46.748 676.424 46.748C674.246 46.748 673.476 47.518 673.366 49.168H671.848C671.958 47.188 673.212 45.494 676.468 45.494C678.536 45.494 680.362 46.374 680.362 49.058V54.668C680.362 55.57 680.494 55.988 681 55.988C681.088 55.988 681.176 55.988 681.308 55.966V57C681.066 57.044 680.824 57.088 680.56 57.088C679.614 57.088 679.064 56.714 678.976 55.306H678.932C678.162 56.582 676.82 57.286 674.994 57.286ZM672.816 54.03C672.816 55.328 673.542 56.032 675.17 56.032C677.458 56.032 678.976 54.822 678.976 52.798V50.708C678.646 51.17 677.458 51.434 676.116 51.654C673.938 52.05 672.816 52.6 672.816 54.03ZM682.885 57V41.27H684.315V57H682.885Z" fill="white" />
		<rect x="653.75" y="90.75" width="18.5" height="18.5" fill="#233137" stroke="white" stroke-width="1.5" />
		<path d="M689.672 107V91.27H695.832C699.176 91.27 701.002 92.832 701.002 95.714C701.002 97.804 699.792 99.234 698.076 99.674V99.718C701.684 100.444 700.43 106.604 701.288 106.868V107H699.572C698.846 106.34 700.276 100.466 696.074 100.466H691.278V107H689.672ZM691.278 99.058H695.436C697.944 99.058 699.396 97.936 699.396 95.736C699.396 93.734 698.252 92.678 695.546 92.678H691.278V99.058ZM707.642 107.308C704.21 107.308 702.296 104.8 702.296 101.39C702.296 97.804 704.408 95.494 707.642 95.494C710.876 95.494 712.702 97.76 712.702 100.884C712.702 101.192 712.702 101.5 712.68 101.676H703.792C703.814 103.942 705.024 106.076 707.664 106.076C709.974 106.076 710.876 104.492 711.096 103.568H712.548C711.998 105.614 710.458 107.308 707.642 107.308ZM703.792 100.422H711.184C711.184 98.42 709.886 96.726 707.576 96.726C705.398 96.726 703.902 98.332 703.792 100.422ZM718.513 107.286C715.367 107.286 713.651 105.57 713.585 103.326H715.081C715.169 104.866 716.181 106.032 718.535 106.032C720.669 106.032 721.395 105.042 721.395 103.942C721.395 102.292 719.723 102.116 718.161 101.742C716.093 101.214 714.003 100.708 714.003 98.53C714.003 96.704 715.455 95.516 717.985 95.516C720.911 95.516 722.275 97.078 722.473 98.926H720.977C720.779 97.936 720.185 96.77 718.007 96.77C716.401 96.77 715.499 97.386 715.499 98.442C715.499 99.85 717.017 100.048 718.711 100.466C720.823 100.972 722.913 101.566 722.913 103.898C722.913 105.944 721.285 107.286 718.513 107.286ZM729.176 107.308C725.744 107.308 723.83 104.8 723.83 101.39C723.83 97.804 725.942 95.494 729.176 95.494C732.41 95.494 734.236 97.76 734.236 100.884C734.236 101.192 734.236 101.5 734.214 101.676H725.326C725.348 103.942 726.558 106.076 729.198 106.076C731.508 106.076 732.41 104.492 732.63 103.568H734.082C733.532 105.614 731.992 107.308 729.176 107.308ZM725.326 100.422H732.718C732.718 98.42 731.42 96.726 729.11 96.726C726.932 96.726 725.436 98.332 725.326 100.422ZM738.99 107.286C736.746 107.286 735.316 106.032 735.316 104.162C735.316 101.742 737.032 100.972 739.936 100.466C741.784 100.136 742.972 100.004 742.972 98.662C742.972 97.518 742.224 96.748 740.42 96.748C738.242 96.748 737.472 97.518 737.362 99.168H735.844C735.954 97.188 737.208 95.494 740.464 95.494C742.532 95.494 744.358 96.374 744.358 99.058V104.668C744.358 105.57 744.49 105.988 744.996 105.988C745.084 105.988 745.172 105.988 745.304 105.966V107C745.062 107.044 744.82 107.088 744.556 107.088C743.61 107.088 743.06 106.714 742.972 105.306H742.928C742.158 106.582 740.816 107.286 738.99 107.286ZM736.812 104.03C736.812 105.328 737.538 106.032 739.166 106.032C741.454 106.032 742.972 104.822 742.972 102.798V100.708C742.642 101.17 741.454 101.434 740.112 101.654C737.934 102.05 736.812 102.6 736.812 104.03ZM748.311 100.73V107H746.881V95.78H748.311V98.068H748.355C748.927 96.594 749.961 95.516 751.545 95.516C751.941 95.516 752.249 95.538 752.513 95.582V96.99C752.293 96.946 752.051 96.924 751.831 96.924C749.807 96.924 748.311 98.552 748.311 100.73ZM757.834 107.286C754.622 107.286 752.466 104.91 752.466 101.39C752.466 97.892 754.622 95.516 757.834 95.516C760.562 95.516 762.41 97.342 762.652 99.718H761.156C761.068 98.464 760.166 96.77 757.834 96.77C755.084 96.77 753.962 99.102 753.962 101.39C753.962 103.7 755.084 106.054 757.834 106.054C760.188 106.054 761.068 104.36 761.156 102.996H762.652C762.498 105.416 760.562 107.286 757.834 107.286ZM771.814 99.432C771.814 98.002 771.154 96.77 769.218 96.77C767.084 96.77 765.676 98.266 765.676 99.916V107H764.246V91.27H765.676V97.386H765.72C766.358 96.462 767.568 95.516 769.57 95.516C771.572 95.516 773.244 96.638 773.244 99.124V107H771.814V99.432Z" fill="white" />
		<path d="M823.672 408V392.27H829.37C833.77 392.27 836.212 395.306 836.212 400.168C836.212 405.03 833.704 408 829.304 408H823.672ZM825.278 406.592H829.304C833.242 406.592 834.54 403.644 834.54 400.168C834.54 396.67 833.308 393.678 829.348 393.678H825.278V406.592ZM842.846 408.308C839.414 408.308 837.5 405.8 837.5 402.39C837.5 398.804 839.612 396.494 842.846 396.494C846.08 396.494 847.906 398.76 847.906 401.884C847.906 402.192 847.906 402.5 847.884 402.676H838.996C839.018 404.942 840.228 407.076 842.868 407.076C845.178 407.076 846.08 405.492 846.3 404.568H847.752C847.202 406.614 845.662 408.308 842.846 408.308ZM838.996 401.422H846.388C846.388 399.42 845.09 397.726 842.78 397.726C840.602 397.726 839.106 399.332 838.996 401.422ZM852.315 408L848.201 396.78H849.785L853.151 406.548H853.173L856.517 396.78H858.057L853.943 408H852.315ZM863.691 408.308C860.259 408.308 858.345 405.8 858.345 402.39C858.345 398.804 860.457 396.494 863.691 396.494C866.925 396.494 868.751 398.76 868.751 401.884C868.751 402.192 868.751 402.5 868.729 402.676H859.841C859.863 404.942 861.073 407.076 863.713 407.076C866.023 407.076 866.925 405.492 867.145 404.568H868.597C868.047 406.614 866.507 408.308 863.691 408.308ZM859.841 401.422H867.233C867.233 399.42 865.935 397.726 863.625 397.726C861.447 397.726 859.951 399.332 859.841 401.422ZM870.426 408V392.27H871.856V408H870.426ZM878.93 408.308C875.564 408.308 873.54 405.888 873.54 402.412C873.54 398.914 875.564 396.494 878.93 396.494C882.296 396.494 884.32 398.914 884.32 402.412C884.32 405.888 882.296 408.308 878.93 408.308ZM875.036 402.412C875.036 404.986 876.312 407.054 878.93 407.054C881.548 407.054 882.824 404.986 882.824 402.412C882.824 399.816 881.548 397.748 878.93 397.748C876.312 397.748 875.036 399.816 875.036 402.412ZM891.266 408.264C889.308 408.264 888.142 407.296 887.482 406.108H887.438V411.894H886.008V396.78H887.438V398.584H887.482C888.142 397.506 889.308 396.494 891.266 396.494C894.016 396.494 896.216 398.694 896.216 402.39C896.216 406.064 894.016 408.264 891.266 408.264ZM887.438 402.39C887.438 405.206 888.956 407.01 891.112 407.01C893.444 407.01 894.72 404.898 894.72 402.39C894.72 399.86 893.444 397.748 891.112 397.748C888.956 397.748 887.438 399.552 887.438 402.39ZM904.7 400.432C904.7 399.024 904.37 397.77 902.5 397.77C900.542 397.77 899.354 399.288 899.354 400.916V408H897.924V396.78H899.354V398.364H899.398C899.992 397.462 901.048 396.516 902.808 396.516C904.392 396.516 905.404 397.242 905.822 398.584H905.866C906.592 397.462 907.802 396.516 909.584 396.516C911.718 396.516 912.884 397.792 912.884 400.124V408H911.454V400.432C911.454 399.024 911.124 397.77 909.276 397.77C907.296 397.77 906.13 399.288 906.13 400.916V408H904.7V400.432ZM919.856 408.308C916.424 408.308 914.51 405.8 914.51 402.39C914.51 398.804 916.622 396.494 919.856 396.494C923.09 396.494 924.916 398.76 924.916 401.884C924.916 402.192 924.916 402.5 924.894 402.676H916.006C916.028 404.942 917.238 407.076 919.878 407.076C922.188 407.076 923.09 405.492 923.31 404.568H924.762C924.212 406.614 922.672 408.308 919.856 408.308ZM916.006 401.422H923.398C923.398 399.42 922.1 397.726 919.79 397.726C917.612 397.726 916.116 399.332 916.006 401.422ZM934.158 400.432C934.158 399.002 933.498 397.77 931.562 397.77C929.428 397.77 928.02 399.266 928.02 400.916V408H926.59V396.78H928.02V398.386H928.064C928.702 397.462 929.912 396.516 931.914 396.516C933.916 396.516 935.588 397.638 935.588 400.124V408H934.158V400.432ZM940.967 408.088C939.339 408.088 938.327 407.538 938.327 405.096V398.034H936.677V396.78H938.327V393.04H939.757V396.78H942.023V398.034H939.757V405.118C939.757 406.504 940.065 406.834 941.165 406.834C941.517 406.834 941.693 406.812 942.023 406.79V408C941.583 408.066 941.319 408.088 940.967 408.088Z" fill="white" />
		<rect x="790.75" y="391.75" width="18.5" height="18.5" fill="#233137" stroke="white" stroke-width="1.5" />
		<path d="M758.883 178.286C754.615 178.286 751.667 174.92 751.667 170.146C751.667 165.394 754.593 161.984 758.905 161.984C762.579 161.984 764.977 164.338 765.373 167.286H763.701C763.393 165.526 762.095 163.392 758.883 163.392C755.077 163.392 753.339 166.626 753.339 170.146C753.339 173.666 755.099 176.878 758.883 176.878C762.205 176.878 763.591 174.59 763.767 172.412H765.439C765.065 175.844 762.623 178.286 758.883 178.286ZM774.597 173.864V166.78H776.027V178H774.597V176.416H774.553C773.915 177.34 772.705 178.264 770.703 178.264C768.701 178.264 767.029 177.142 767.029 174.656V166.78H768.459V174.348C768.459 175.778 769.119 177.01 771.055 177.01C773.189 177.01 774.597 175.514 774.597 173.864ZM779.776 178H778.346V162.27H779.776V178ZM786.388 166.78V168.034H784.122V175.118C784.122 176.504 784.43 176.834 785.53 176.834C785.882 176.834 786.058 176.812 786.388 176.79V178C785.948 178.066 785.684 178.088 785.332 178.088C783.704 178.088 782.692 177.538 782.692 175.096V168.034H781.042V166.78H782.692V163.04H784.122V166.78H786.388ZM795.392 173.864V166.78H796.822V178H795.392V176.416H795.348C794.71 177.34 793.5 178.264 791.498 178.264C789.496 178.264 787.824 177.142 787.824 174.656V166.78H789.254V174.348C789.254 175.778 789.914 177.01 791.85 177.01C793.984 177.01 795.392 175.514 795.392 173.864ZM803.805 166.516C804.201 166.516 804.509 166.538 804.773 166.582V167.99C804.553 167.946 804.311 167.924 804.091 167.924C802.067 167.924 800.571 169.552 800.571 171.73V178H799.141V166.78H800.571V169.068H800.615C801.187 167.594 802.221 166.516 803.805 166.516ZM808.572 178.286C806.328 178.286 804.898 177.032 804.898 175.162C804.898 172.742 806.614 171.972 809.518 171.466C811.366 171.136 812.554 171.004 812.554 169.662C812.554 168.518 811.806 167.748 810.002 167.748C807.824 167.748 807.054 168.518 806.944 170.168H805.426C805.536 168.188 806.79 166.494 810.046 166.494C812.114 166.494 813.94 167.374 813.94 170.058V175.668C813.94 176.57 814.072 176.988 814.578 176.988C814.666 176.988 814.754 176.988 814.886 176.966V178C814.644 178.044 814.402 178.088 814.138 178.088C813.192 178.088 812.642 177.714 812.554 176.306H812.51C811.74 177.582 810.398 178.286 808.572 178.286ZM808.748 177.032C811.036 177.032 812.554 175.822 812.554 173.798V171.708C812.224 172.17 811.036 172.434 809.694 172.654C807.516 173.05 806.394 173.6 806.394 175.03C806.394 176.328 807.12 177.032 808.748 177.032ZM817.893 178H816.463V162.27H817.893V178Z" fill="white" />
		<rect x="720.351" y="163.058" width="18.5" height="18.5" transform="rotate(7.7851 720.351 163.058)" fill="#233137" stroke="white" stroke-width="1.5" stroke-dasharray="3 3" />
	</g>
</svg>
