<svg width="800" height="800" viewBox="0 0 800 800" fill="none" xmlns="http://www.w3.org/2000/svg">
	<g opacity="0.6">
		<circle opacity="0.3" cx="478.619" cy="465.619" r="295.869" stroke="white" stroke-width="1.5" />
		<circle opacity="0.3" cx="454.5" cy="337.5" r="166.75" stroke="white" stroke-width="1.5" />
		<rect opacity="0.6" x="118.75" y="118.75" width="562.5" height="562.5" stroke="white" stroke-width="1.5" />
		<path d="M250.533 517V506.99H254.341C257.113 506.99 258.793 508.782 258.793 512.002C258.793 515.222 257.141 517 254.369 517H250.533ZM252.073 515.67H254.271C256.595 515.67 257.197 513.934 257.197 512.002C257.197 510.07 256.595 508.32 254.271 508.32H252.073V515.67ZM260.253 517V506.99H267.337V508.32H261.793V511.162H266.651V512.492H261.793V515.67H267.477V517H260.253ZM268.85 517V506.99H273.022C275.234 506.99 276.424 508.026 276.424 509.874C276.424 511.148 275.654 512.072 274.548 512.324V512.352C276.872 512.786 276.018 516.734 276.564 516.902V517H274.912C274.464 516.58 275.416 513.08 272.966 513.08H270.39V517H268.85ZM270.39 511.75H272.686C274.1 511.75 274.87 511.134 274.87 509.986C274.87 508.908 274.254 508.32 272.714 508.32H270.39V511.75ZM277.968 517V506.99H279.998L282.882 514.858H282.91L285.808 506.99H287.838V517H286.326V509.23H286.298L283.54 517H282.266L279.508 509.23H279.48V517H277.968ZM288.813 517L292.537 506.99H294.204L297.955 517H296.275L295.449 514.592H291.263L290.437 517H288.813ZM291.725 513.29H295.016L293.377 508.418H293.349L291.725 513.29ZM300.075 517V508.32H296.841V506.99H304.863V508.32H301.629V517H300.075ZM309.786 517.196C306.79 517.196 304.872 514.998 304.872 511.988C304.872 508.978 306.79 506.794 309.786 506.794C312.782 506.794 314.7 508.978 314.7 511.988C314.7 514.998 312.782 517.196 309.786 517.196ZM306.482 511.988C306.482 514.046 307.42 515.866 309.786 515.866C312.152 515.866 313.09 514.046 313.09 511.988C313.09 509.93 312.152 508.124 309.786 508.124C307.42 508.124 306.482 509.93 306.482 511.988ZM316.133 517V506.99H317.673V515.67H322.741V517H316.133ZM327.61 517.196C324.614 517.196 322.696 514.998 322.696 511.988C322.696 508.978 324.614 506.794 327.61 506.794C330.606 506.794 332.524 508.978 332.524 511.988C332.524 514.998 330.606 517.196 327.61 517.196ZM324.306 511.988C324.306 514.046 325.244 515.866 327.61 515.866C329.976 515.866 330.914 514.046 330.914 511.988C330.914 509.93 329.976 508.124 327.61 508.124C325.244 508.124 324.306 509.93 324.306 511.988ZM337.99 517.196C335.106 517.196 333.482 515.012 333.482 511.988C333.482 508.978 335.316 506.794 338.172 506.794C340.762 506.794 342.134 508.18 342.456 510.084H340.846C340.58 508.824 339.642 508.124 338.158 508.124C335.946 508.124 335.092 510.112 335.092 511.988C335.092 513.878 335.736 515.866 338.074 515.866C339.726 515.866 341.042 514.718 341.056 513.052H338.102V511.764H342.624V517H341.56L341.182 515.614H341.154C340.454 516.636 339.516 517.196 337.99 517.196ZM346.228 517V512.996L342.644 506.99H344.31L346.998 511.778H347.026L349.714 506.99H351.366L347.782 512.996V517H346.228Z" fill="white" />
		<path d="M165.806 230V219.99H169.614C172.386 219.99 174.066 221.782 174.066 225.002C174.066 228.222 172.414 230 169.642 230H165.806ZM167.346 228.67H169.544C171.868 228.67 172.47 226.934 172.47 225.002C172.47 223.07 171.868 221.32 169.544 221.32H167.346V228.67ZM175.525 230V219.99H182.609V221.32H177.065V224.162H181.923V225.492H177.065V228.67H182.749V230H175.525ZM184.123 230V219.99H185.887L190.535 227.69H190.563V219.99H192.117V230H190.353L185.691 222.3H185.663V230H184.123ZM196.484 230V221.32H193.25V219.99H201.272V221.32H198.038V230H196.484ZM202.399 230V219.99H203.939V230H202.399ZM209.623 230.196C207.089 230.196 205.311 228.88 205.199 226.626H206.795C206.907 227.97 207.705 228.88 209.581 228.88C211.191 228.88 211.681 228.18 211.681 227.27C211.681 225.996 210.701 225.814 208.881 225.352C207.313 224.932 205.591 224.428 205.591 222.524C205.591 220.788 206.935 219.794 209.091 219.794C211.373 219.794 212.857 220.956 213.011 222.972H211.415C211.247 221.768 210.561 221.11 209.105 221.11C207.845 221.11 207.201 221.572 207.201 222.44C207.201 223.56 208.251 223.798 209.539 224.12C211.471 224.61 213.291 225.072 213.291 227.186C213.291 228.908 212.129 230.196 209.623 230.196ZM216.645 230V221.32H213.411V219.99H221.433V221.32H218.199V230H216.645ZM222.56 230V219.99H226.732C228.944 219.99 230.134 221.026 230.134 222.874C230.134 224.148 229.364 225.072 228.258 225.324V225.352C230.582 225.786 229.728 229.734 230.274 229.902V230H228.622C228.174 229.58 229.126 226.08 226.676 226.08H224.1V230H222.56ZM224.1 224.75H226.396C227.81 224.75 228.58 224.134 228.58 222.986C228.58 221.908 227.964 221.32 226.424 221.32H224.1V224.75ZM233.956 230V225.996L230.372 219.99H232.038L234.726 224.778H234.754L237.442 219.99H239.094L235.51 225.996V230H233.956Z" fill="white" />
		<circle opacity="0.6" cx="400" cy="400" r="399.25" stroke="white" stroke-width="1.5" />
		<circle opacity="0.3" cx="296.619" cy="296.619" r="295.869" transform="matrix(-1 0 0 1 622.238 32)" stroke="white" stroke-width="1.5" />
		<path d="M404.591 343.196C401.749 343.196 399.915 341.012 399.915 338.002C399.915 334.978 401.763 332.794 404.605 332.794C407.111 332.794 408.665 334.39 408.903 336.392H407.293C407.111 335.412 406.495 334.124 404.577 334.124C402.365 334.124 401.525 336 401.525 337.988C401.525 339.99 402.365 341.866 404.577 341.866C406.509 341.866 407.195 340.578 407.293 339.36H408.903C408.679 341.586 407.111 343.196 404.591 343.196ZM410.22 343V332.99H417.304V334.32H411.76V337.162H416.618V338.492H411.76V341.67H417.444V343H410.22ZM418.818 343V332.99H422.99C424.88 332.99 426.266 333.872 426.266 335.972C426.266 338.072 424.88 338.94 422.99 338.94H420.358V343H418.818ZM420.358 337.61H422.92C424.082 337.61 424.67 337.092 424.67 335.972C424.67 334.838 424.082 334.32 422.92 334.32H420.358V337.61ZM427.484 343V332.99H429.024V337.176H433.938V332.99H435.492V343H433.938V338.506H429.024V343H427.484ZM436.457 343L440.181 332.99H441.847L445.599 343H443.919L443.093 340.592H438.907L438.081 343H436.457ZM439.369 339.29H442.659L441.021 334.418H440.993L439.369 339.29ZM446.567 343V332.99H448.107V341.67H453.175V343H446.567ZM458.044 343.196C455.048 343.196 453.13 340.998 453.13 337.988C453.13 334.978 455.048 332.794 458.044 332.794C461.04 332.794 462.958 334.978 462.958 337.988C462.958 340.998 461.04 343.196 458.044 343.196ZM454.74 337.988C454.74 340.046 455.678 341.866 458.044 341.866C460.41 341.866 461.348 340.046 461.348 337.988C461.348 335.93 460.41 334.124 458.044 334.124C455.678 334.124 454.74 335.93 454.74 337.988ZM464.392 343V332.99H466.422L469.306 340.858H469.334L472.232 332.99H474.262V343H472.75V335.23H472.722L469.964 343H468.69L465.932 335.23H465.904V343H464.392ZM476.175 343V332.99H483.259V334.32H477.715V337.162H482.573V338.492H477.715V341.67H483.399V343H476.175ZM487.046 343V334.32H483.812V332.99H491.834V334.32H488.6V343H487.046ZM492.961 343V332.99H497.133C499.345 332.99 500.535 334.026 500.535 335.874C500.535 337.148 499.765 338.072 498.659 338.324V338.352C500.983 338.786 500.129 342.734 500.675 342.902V343H499.023C498.575 342.58 499.527 339.08 497.077 339.08H494.501V343H492.961ZM494.501 337.75H496.797C498.211 337.75 498.981 337.134 498.981 335.986C498.981 334.908 498.365 334.32 496.825 334.32H494.501V337.75ZM504.357 343V338.996L500.773 332.99H502.439L505.127 337.778H505.155L507.843 332.99H509.495L505.911 338.996V343H504.357Z" fill="white" />
		<path d="M508.346 633V622.99H510.376L513.26 630.858H513.288L516.186 622.99H518.216V633H516.704V625.23H516.676L513.918 633H512.644L509.886 625.23H509.858V633H508.346ZM519.191 633L522.915 622.99H524.581L528.333 633H526.653L525.827 630.592H521.641L520.815 633H519.191ZM522.103 629.29H525.393L523.755 624.418H523.727L522.103 629.29ZM528.251 633L531.639 627.89L528.489 622.99H530.197L532.521 626.77H532.535L534.873 622.99H536.567L533.417 627.862L536.735 633H534.943L532.493 629.01H532.479L530.057 633H528.251ZM537.64 633V622.99H539.18V633H537.64ZM541.097 633V622.99H542.637V631.67H547.705V633H541.097ZM548.834 633V622.99H550.374V631.67H555.442V633H548.834ZM560.311 633.196C557.315 633.196 555.397 630.998 555.397 627.988C555.397 624.978 557.315 622.794 560.311 622.794C563.307 622.794 565.225 624.978 565.225 627.988C565.225 630.998 563.307 633.196 560.311 633.196ZM557.007 627.988C557.007 630.046 557.945 631.866 560.311 631.866C562.677 631.866 563.615 630.046 563.615 627.988C563.615 625.93 562.677 624.124 560.311 624.124C557.945 624.124 557.007 625.93 557.007 627.988ZM566.658 633V622.99H573.602V624.32H568.198V627.33H572.566V628.66H568.198V633H566.658ZM572.65 633L576.374 622.99H578.04L581.792 633H580.112L579.286 630.592H575.1L574.274 633H572.65ZM575.562 629.29H578.852L577.214 624.418H577.186L575.562 629.29ZM586.577 633.196C583.735 633.196 581.901 631.012 581.901 628.002C581.901 624.978 583.749 622.794 586.591 622.794C589.097 622.794 590.651 624.39 590.889 626.392H589.279C589.097 625.412 588.481 624.124 586.563 624.124C584.351 624.124 583.511 626 583.511 627.988C583.511 629.99 584.351 631.866 586.563 631.866C588.495 631.866 589.181 630.578 589.279 629.36H590.889C590.665 631.586 589.097 633.196 586.577 633.196ZM592.206 633V622.99H593.746V633H592.206ZM594.726 633L598.45 622.99H600.116L603.868 633H602.188L601.362 630.592H597.176L596.35 633H594.726ZM597.638 629.29H600.928L599.29 624.418H599.262L597.638 629.29ZM604.836 633V622.99H606.376V631.67H611.444V633H604.836Z" fill="white" />
		<circle opacity="0.6" cx="400" cy="400" r="399.25" transform="matrix(-1 0 0 1 800 0)" stroke="white" stroke-width="1.5" />
	</g>
</svg>
